<?xml version="1.0" encoding="UTF-8" standalone="no"?>
<!DOCTYPE svg PUBLIC "-//W3C//DTD SVG 1.1//EN" "http://www.w3.org/Graphics/SVG/1.1/DTD/svg11.dtd">
<svg xmlns="http://www.w3.org/2000/svg" version="1.1" viewBox="0.00 0.00 386.00 296.00">
<path fill="#264653" d="
  M 73.64 51.19
  Q 73.18 51.00 73.04 50.63
  A 0.78 0.78 0.0 0 1 73.48 49.64
  Q 128.23 27.69 183.17 5.64
  C 189.10 3.26 193.48 0.82 198.52 2.76
  C 237.67 17.81 276.41 34.03 315.80 49.52
  A 0.87 0.86 -45.1 0 1 315.80 51.13
  Q 257.66 74.48 199.07 97.84
  C 195.82 99.13 193.95 99.27 190.52 97.91
  Q 132.00 74.73 73.64 51.19
  Z"
/>
<path fill="#2b9d8e" d="
  M 187.96 107.03
  C 192.42 108.79 197.66 107.66 202.04 105.90
  C 231.39 94.10 260.76 81.49 290.46 70.66
  A 4.00 3.99 -44.1 0 1 293.30 70.70
  L 331.31 85.86
  A 1.04 1.00 -60.5 0 1 331.71 87.42
  C 331.62 87.54 331.16 88.00 330.96 88.07
  C 318.76 92.37 303.37 98.93 294.93 102.24
  Q 247.31 120.96 199.85 140.11
  C 194.78 142.15 192.67 141.53 187.93 139.57
  Q 126.17 114.14 63.86 90.07
  Q 60.62 88.82 57.82 87.42
  A 0.71 0.70 46.9 0 1 57.86 86.14
  Q 76.34 78.36 95.16 71.10
  C 96.09 70.74 98.04 71.15 99.18 71.61
  C 128.71 83.59 158.31 95.32 187.96 107.03
  Z"
/>
<path fill="#e9c46b" d="
  M 189.07 148.99
  C 192.11 150.17 196.58 150.08 199.85 148.80
  Q 248.50 129.76 296.94 110.18
  C 299.62 109.09 302.59 108.58 305.53 109.78
  Q 326.21 118.22 347.01 126.32
  Q 347.95 126.68 348.35 127.16
  A 1.42 1.42 0.0 0 1 347.79 129.38
  C 300.52 148.60 252.86 166.97 205.51 186.20
  C 198.09 189.21 195.45 191.04 188.74 188.28
  Q 174.70 182.49 123.99 162.24
  C 100.20 152.74 76.27 143.83 52.66 133.84
  C 49.82 132.64 44.44 131.01 40.76 128.82
  A 1.01 1.01 0.0 0 1 40.91 127.01
  Q 61.79 118.71 82.48 110.20
  Q 87.07 108.31 92.15 110.38
  Q 140.45 130.10 189.07 148.99
  Z"
/>
<path fill="#f3a262" d="
  M 181.66 196.21
  C 188.68 199.10 194.35 199.96 201.43 197.32
  Q 210.47 193.95 219.40 190.29
  Q 287.97 162.15 311.54 153.51
  C 314.98 152.25 353.47 169.01 359.35 171.45
  A 1.20 1.19 45.1 0 1 359.35 173.66
  C 337.82 182.51 316.11 190.70 294.53 199.30
  Q 243.34 219.70 192.20 240.23
  C 190.57 240.88 185.67 239.81 183.43 238.89
  Q 113.64 210.32 43.45 182.76
  C 37.89 180.58 27.59 177.00 19.87 173.55
  Q 18.84 173.09 19.64 172.29
  C 19.91 172.01 20.86 171.18 21.26 171.02
  Q 44.98 161.57 68.72 152.18
  C 69.75 151.78 72.00 151.97 73.31 152.48
  Q 127.67 173.90 181.66 196.21
  Z"
/>
<path fill="#e66f51" d="
  M 179.23 247.55
  C 186.13 250.35 191.61 251.14 198.52 248.38
  Q 263.64 222.36 328.72 196.23
  C 330.39 195.56 332.77 195.70 334.20 196.28
  Q 359.54 206.63 384.15 216.48
  A 1.40 1.40 0.0 0 1 384.13 219.08
  C 322.76 242.79 246.42 273.39 200.69 292.19
  C 192.95 295.37 188.26 293.69 179.91 290.23
  C 122.52 266.46 64.96 242.69 6.79 220.88
  Q 4.08 219.87 1.43 218.39
  A 1.03 1.03 0.0 0 1 1.55 216.54
  L 50.73 196.94
  Q 51.20 196.76 51.68 196.89
  Q 55.32 197.88 60.34 199.87
  Q 119.87 223.50 179.23 247.55
  Z"
/>
</svg>
