<?xml version="1.0" encoding="UTF-8" standalone="no"?>
<!DOCTYPE svg PUBLIC "-//W3C//DTD SVG 1.1//EN"
 "http://www.w3.org/Graphics/SVG/1.1/DTD/svg11.dtd">
<!-- Generated by graphviz version 8.1.0 (20230707.0739)
 -->
<!-- Title: G Pages: 1 -->
<svg width="1359pt" height="552pt"
 viewBox="0.00 0.00 1358.95 552.11" xmlns="http://www.w3.org/2000/svg" xmlns:xlink="http://www.w3.org/1999/xlink">
<g id="graph0" class="graph" transform="scale(1 1) rotate(0) translate(21.6 530.51)">
<title>G</title>
<polygon fill="#111111" stroke="none" points="-21.6,21.6 -21.6,-530.51 1337.35,-530.51 1337.35,21.6 -21.6,21.6"/>
<!-- Game/Game.js -->
<g id="node1" class="node">
<title>Game/Game.js</title>
<path fill="none" stroke="#c6c5fe" d="M414.08,-304.5C414.08,-304.5 318.42,-304.5 318.42,-304.5 314.33,-304.5 310.25,-300.42 310.25,-296.33 310.25,-296.33 310.25,-288.17 310.25,-288.17 310.25,-284.08 314.33,-280 318.42,-280 318.42,-280 414.08,-280 414.08,-280 418.17,-280 422.25,-284.08 422.25,-288.17 422.25,-288.17 422.25,-296.33 422.25,-296.33 422.25,-300.42 418.17,-304.5 414.08,-304.5"/>
<text text-anchor="middle" x="366.25" y="-287.2" font-family="Arial" font-size="14.00" fill="#c6c5fe">Game/Game.js</text>
</g>
<!-- Game/config/Config.js -->
<g id="node2" class="node">
<title>Game/config/Config.js</title>
<path fill="none" stroke="#cfffac" d="M1291.08,-253.5C1291.08,-253.5 1149.67,-253.5 1149.67,-253.5 1145.58,-253.5 1141.5,-249.42 1141.5,-245.33 1141.5,-245.33 1141.5,-237.17 1141.5,-237.17 1141.5,-233.08 1145.58,-229 1149.67,-229 1149.67,-229 1291.08,-229 1291.08,-229 1295.17,-229 1299.25,-233.08 1299.25,-237.17 1299.25,-237.17 1299.25,-245.33 1299.25,-245.33 1299.25,-249.42 1295.17,-253.5 1291.08,-253.5"/>
<text text-anchor="middle" x="1220.38" y="-236.2" font-family="Arial" font-size="14.00" fill="#cfffac">Game/config/Config.js</text>
</g>
<!-- Game/Game.js&#45;&gt;Game/config/Config.js -->
<g id="edge1" class="edge">
<title>Game/Game.js&#45;&gt;Game/config/Config.js</title>
<path fill="none" stroke="#757575" d="M376.64,-279.52C391.66,-260.07 423.03,-223.13 458.25,-203.25 631.17,-105.65 693.78,-116.34 890.75,-91.25 978.15,-80.12 1008.82,-54.71 1089,-91.25 1147.29,-117.82 1189.61,-184.75 1208.46,-219.52"/>
<polygon fill="#757575" stroke="#757575" points="1205.59,-220.59 1213.35,-227.81 1211.79,-217.33 1205.59,-220.59"/>
</g>
<!-- Game/config/types.js -->
<g id="node3" class="node">
<title>Game/config/types.js</title>
<path fill="none" stroke="#cfffac" d="M1056.83,-425.5C1056.83,-425.5 922.92,-425.5 922.92,-425.5 918.83,-425.5 914.75,-421.42 914.75,-417.33 914.75,-417.33 914.75,-409.17 914.75,-409.17 914.75,-405.08 918.83,-401 922.92,-401 922.92,-401 1056.83,-401 1056.83,-401 1060.92,-401 1065,-405.08 1065,-409.17 1065,-409.17 1065,-417.33 1065,-417.33 1065,-421.42 1060.92,-425.5 1056.83,-425.5"/>
<text text-anchor="middle" x="989.88" y="-408.2" font-family="Arial" font-size="14.00" fill="#cfffac">Game/config/types.js</text>
</g>
<!-- Game/Game.js&#45;&gt;Game/config/types.js -->
<g id="edge2" class="edge">
<title>Game/Game.js&#45;&gt;Game/config/types.js</title>
<path fill="none" stroke="#757575" d="M374.62,-304.68C388.09,-326.09 418.98,-369.34 458.25,-387.25 535.23,-422.36 774.41,-420.5 903.76,-416.63"/>
<polygon fill="#757575" stroke="#757575" points="903.52,-420.11 913.4,-416.3 903.3,-413.11 903.52,-420.11"/>
</g>
<!-- Game/core/Camera.js -->
<g id="node4" class="node">
<title>Game/core/Camera.js</title>
<path fill="none" stroke="#cfffac" d="M633.71,-347.5C633.71,-347.5 494.54,-347.5 494.54,-347.5 490.46,-347.5 486.38,-343.42 486.38,-339.33 486.38,-339.33 486.38,-331.17 486.38,-331.17 486.38,-327.08 490.46,-323 494.54,-323 494.54,-323 633.71,-323 633.71,-323 637.79,-323 641.88,-327.08 641.88,-331.17 641.88,-331.17 641.88,-339.33 641.88,-339.33 641.88,-343.42 637.79,-347.5 633.71,-347.5"/>
<text text-anchor="middle" x="564.12" y="-330.2" font-family="Arial" font-size="14.00" fill="#cfffac">Game/core/Camera.js</text>
</g>
<!-- Game/Game.js&#45;&gt;Game/core/Camera.js -->
<g id="edge3" class="edge">
<title>Game/Game.js&#45;&gt;Game/core/Camera.js</title>
<path fill="none" stroke="#757575" d="M421.58,-304.98C433.65,-307.75 446.37,-310.63 458.25,-313.25 468.85,-315.58 480.07,-318 491.07,-320.33"/>
<polygon fill="#757575" stroke="#757575" points="490.02,-323.9 500.53,-322.54 491.46,-317.05 490.02,-323.9"/>
</g>
<!-- Game/core/Renderer.js -->
<g id="node5" class="node">
<title>Game/core/Renderer.js</title>
<path fill="none" stroke="#cfffac" d="M638.58,-304.5C638.58,-304.5 489.67,-304.5 489.67,-304.5 485.58,-304.5 481.5,-300.42 481.5,-296.33 481.5,-296.33 481.5,-288.17 481.5,-288.17 481.5,-284.08 485.58,-280 489.67,-280 489.67,-280 638.58,-280 638.58,-280 642.67,-280 646.75,-284.08 646.75,-288.17 646.75,-288.17 646.75,-296.33 646.75,-296.33 646.75,-300.42 642.67,-304.5 638.58,-304.5"/>
<text text-anchor="middle" x="564.12" y="-287.2" font-family="Arial" font-size="14.00" fill="#cfffac">Game/core/Renderer.js</text>
</g>
<!-- Game/Game.js&#45;&gt;Game/core/Renderer.js -->
<g id="edge4" class="edge">
<title>Game/Game.js&#45;&gt;Game/core/Renderer.js</title>
<path fill="none" stroke="#757575" d="M422.59,-292.25C437.54,-292.25 454.12,-292.25 470.5,-292.25"/>
<polygon fill="#757575" stroke="#757575" points="470.22,-295.75 480.22,-292.25 470.22,-288.75 470.22,-295.75"/>
</g>
<!-- Game/ui/Sizes.js -->
<g id="node6" class="node">
<title>Game/ui/Sizes.js</title>
<path fill="none" stroke="#c6c5fe" d="M833.46,-465.5C833.46,-465.5 727.29,-465.5 727.29,-465.5 723.21,-465.5 719.12,-461.42 719.12,-457.33 719.12,-457.33 719.12,-449.17 719.12,-449.17 719.12,-445.08 723.21,-441 727.29,-441 727.29,-441 833.46,-441 833.46,-441 837.54,-441 841.62,-445.08 841.62,-449.17 841.62,-449.17 841.62,-457.33 841.62,-457.33 841.62,-461.42 837.54,-465.5 833.46,-465.5"/>
<text text-anchor="middle" x="780.38" y="-448.2" font-family="Arial" font-size="14.00" fill="#c6c5fe">Game/ui/Sizes.js</text>
</g>
<!-- Game/Game.js&#45;&gt;Game/ui/Sizes.js -->
<g id="edge5" class="edge">
<title>Game/Game.js&#45;&gt;Game/ui/Sizes.js</title>
<path fill="none" stroke="#757575" d="M371.4,-304.71C381.36,-332.37 409.45,-398.71 458.25,-427.25 534.67,-471.95 639.35,-471.31 708.13,-464.31"/>
<polygon fill="#757575" stroke="#757575" points="708.29,-467.71 717.85,-463.14 707.53,-460.75 708.29,-467.71"/>
</g>
<!-- Game/ui/Ui.js -->
<g id="node7" class="node">
<title>Game/ui/Ui.js</title>
<path fill="none" stroke="#c6c5fe" d="M1031.71,-382.5C1031.71,-382.5 948.04,-382.5 948.04,-382.5 943.96,-382.5 939.88,-378.42 939.88,-374.33 939.88,-374.33 939.88,-366.17 939.88,-366.17 939.88,-362.08 943.96,-358 948.04,-358 948.04,-358 1031.71,-358 1031.71,-358 1035.79,-358 1039.88,-362.08 1039.88,-366.17 1039.88,-366.17 1039.88,-374.33 1039.88,-374.33 1039.88,-378.42 1035.79,-382.5 1031.71,-382.5"/>
<text text-anchor="middle" x="989.88" y="-365.2" font-family="Arial" font-size="14.00" fill="#c6c5fe">Game/ui/Ui.js</text>
</g>
<!-- Game/Game.js&#45;&gt;Game/ui/Ui.js -->
<g id="edge6" class="edge">
<title>Game/Game.js&#45;&gt;Game/ui/Ui.js</title>
<path fill="none" stroke="#757575" d="M379.74,-304.76C396.12,-320.21 426.53,-345.75 458.25,-356.25 621.42,-410.26 828.48,-393 928.87,-379.65"/>
<polygon fill="#757575" stroke="#757575" points="929.27,-383 938.71,-378.17 928.32,-376.06 929.27,-383"/>
</g>
<!-- Game/world/World.js -->
<g id="node8" class="node">
<title>Game/world/World.js</title>
<path fill="none" stroke="#c6c5fe" d="M846.58,-233.5C846.58,-233.5 714.17,-233.5 714.17,-233.5 710.08,-233.5 706,-229.42 706,-225.33 706,-225.33 706,-217.17 706,-217.17 706,-213.08 710.08,-209 714.17,-209 714.17,-209 846.58,-209 846.58,-209 850.67,-209 854.75,-213.08 854.75,-217.17 854.75,-217.17 854.75,-225.33 854.75,-225.33 854.75,-229.42 850.67,-233.5 846.58,-233.5"/>
<text text-anchor="middle" x="780.38" y="-216.2" font-family="Arial" font-size="14.00" fill="#c6c5fe">Game/world/World.js</text>
</g>
<!-- Game/Game.js&#45;&gt;Game/world/World.js -->
<g id="edge7" class="edge">
<title>Game/Game.js&#45;&gt;Game/world/World.js</title>
<path fill="none" stroke="#757575" d="M379.73,-279.72C396.11,-264.24 426.5,-238.68 458.25,-228.25 535.41,-202.91 628.71,-204.13 694.81,-209.9"/>
<polygon fill="#757575" stroke="#757575" points="694.31,-213.46 704.59,-210.9 694.96,-206.49 694.31,-213.46"/>
</g>
<!-- Game/world/WorldOpponent.js -->
<g id="node9" class="node">
<title>Game/world/WorldOpponent.js</title>
<path fill="none" stroke="#c6c5fe" d="M661.83,-261.5C661.83,-261.5 466.42,-261.5 466.42,-261.5 462.33,-261.5 458.25,-257.42 458.25,-253.33 458.25,-253.33 458.25,-245.17 458.25,-245.17 458.25,-241.08 462.33,-237 466.42,-237 466.42,-237 661.83,-237 661.83,-237 665.92,-237 670,-241.08 670,-245.17 670,-245.17 670,-253.33 670,-253.33 670,-257.42 665.92,-261.5 661.83,-261.5"/>
<text text-anchor="middle" x="564.12" y="-244.2" font-family="Arial" font-size="14.00" fill="#c6c5fe">Game/world/WorldOpponent.js</text>
</g>
<!-- Game/Game.js&#45;&gt;Game/world/WorldOpponent.js -->
<g id="edge8" class="edge">
<title>Game/Game.js&#45;&gt;Game/world/WorldOpponent.js</title>
<path fill="none" stroke="#757575" d="M421.58,-279.52C433.65,-276.75 446.37,-273.87 458.25,-271.25 468.85,-268.92 480.07,-266.5 491.07,-264.17"/>
<polygon fill="#757575" stroke="#757575" points="491.46,-267.45 500.53,-261.96 490.02,-260.6 491.46,-267.45"/>
</g>
<!-- Game/utils/EventEmmiter.js -->
<g id="node14" class="node">
<title>Game/utils/EventEmmiter.js</title>
<path fill="none" stroke="#cfffac" d="M1307.58,-423.5C1307.58,-423.5 1133.17,-423.5 1133.17,-423.5 1129.08,-423.5 1125,-419.42 1125,-415.33 1125,-415.33 1125,-407.17 1125,-407.17 1125,-403.08 1129.08,-399 1133.17,-399 1133.17,-399 1307.58,-399 1307.58,-399 1311.67,-399 1315.75,-403.08 1315.75,-407.17 1315.75,-407.17 1315.75,-415.33 1315.75,-415.33 1315.75,-419.42 1311.67,-423.5 1307.58,-423.5"/>
<text text-anchor="middle" x="1220.38" y="-406.2" font-family="Arial" font-size="14.00" fill="#cfffac">Game/utils/EventEmmiter.js</text>
</g>
<!-- Game/ui/Sizes.js&#45;&gt;Game/utils/EventEmmiter.js -->
<g id="edge13" class="edge">
<title>Game/ui/Sizes.js&#45;&gt;Game/utils/EventEmmiter.js</title>
<path fill="none" stroke="#757575" d="M841.97,-451.53C904.14,-449.29 1003.58,-444.39 1089,-434.25 1107.22,-432.09 1126.76,-429.04 1145.01,-425.86"/>
<polygon fill="#757575" stroke="#757575" points="1145.36,-429.18 1154.6,-423.98 1144.14,-422.29 1145.36,-429.18"/>
</g>
<!-- Game/ui/Ui.js&#45;&gt;Game/config/Config.js -->
<g id="edge14" class="edge">
<title>Game/ui/Ui.js&#45;&gt;Game/config/Config.js</title>
<path fill="none" stroke="#757575" d="M1040.3,-363.82C1056.37,-360.53 1073.94,-355.6 1089,-348.25 1133.96,-326.31 1176.98,-286 1200.62,-261.61"/>
<polygon fill="#757575" stroke="#757575" points="1202.79,-264.36 1207.15,-254.7 1197.72,-259.53 1202.79,-264.36"/>
</g>
<!-- Game/ui/Ui.js&#45;&gt;Game/utils/EventEmmiter.js -->
<g id="edge15" class="edge">
<title>Game/ui/Ui.js&#45;&gt;Game/utils/EventEmmiter.js</title>
<path fill="none" stroke="#757575" d="M1040.17,-379.1C1068.71,-384.22 1105.33,-390.79 1138.02,-396.65"/>
<polygon fill="#757575" stroke="#757575" points="1137.02,-400.21 1147.48,-398.53 1138.26,-393.32 1137.02,-400.21"/>
</g>
<!-- Game/world/World.js&#45;&gt;Game/config/types.js -->
<g id="edge17" class="edge">
<title>Game/world/World.js&#45;&gt;Game/config/types.js</title>
<path fill="none" stroke="#757575" d="M791.22,-233.75C805.87,-252.6 833.94,-289.7 854.75,-323.25 872.78,-352.31 863.57,-370.49 890.75,-391.25 895.06,-394.54 899.77,-397.36 904.72,-399.77"/>
<polygon fill="#757575" stroke="#757575" points="902.92,-403.23 913.49,-403.92 905.66,-396.79 902.92,-403.23"/>
</g>
<!-- Game/world/World.js&#45;&gt;Game/ui/Ui.js -->
<g id="edge19" class="edge">
<title>Game/world/World.js&#45;&gt;Game/ui/Ui.js</title>
<path fill="none" stroke="#757575" d="M788.29,-233.68C803.32,-259.45 841.59,-318.77 890.75,-348.25 902.27,-355.16 915.73,-359.9 928.92,-363.16"/>
<polygon fill="#757575" stroke="#757575" points="927.88,-366.73 938.4,-365.46 929.38,-359.89 927.88,-366.73"/>
</g>
<!-- Game/client/SocketClient.js -->
<g id="node11" class="node">
<title>Game/client/SocketClient.js</title>
<path fill="none" stroke="#cfffac" d="M1076.71,-124.5C1076.71,-124.5 903.04,-124.5 903.04,-124.5 898.96,-124.5 894.88,-120.42 894.88,-116.33 894.88,-116.33 894.88,-108.17 894.88,-108.17 894.88,-104.08 898.96,-100 903.04,-100 903.04,-100 1076.71,-100 1076.71,-100 1080.79,-100 1084.88,-104.08 1084.88,-108.17 1084.88,-108.17 1084.88,-116.33 1084.88,-116.33 1084.88,-120.42 1080.79,-124.5 1076.71,-124.5"/>
<text text-anchor="middle" x="989.88" y="-107.2" font-family="Arial" font-size="14.00" fill="#cfffac">Game/client/SocketClient.js</text>
</g>
<!-- Game/world/World.js&#45;&gt;Game/client/SocketClient.js -->
<g id="edge16" class="edge">
<title>Game/world/World.js&#45;&gt;Game/client/SocketClient.js</title>
<path fill="none" stroke="#757575" d="M807.22,-208.51C821.95,-200.6 840.29,-189.6 854.75,-177.25 873.7,-161.06 869.46,-147.22 890.75,-134.25 893.77,-132.41 896.92,-130.72 900.18,-129.18"/>
<polygon fill="#757575" stroke="#757575" points="901.33,-132.07 909.18,-124.95 898.6,-125.62 901.33,-132.07"/>
</g>
<!-- Game/ui/Background.js -->
<g id="node13" class="node">
<title>Game/ui/Background.js</title>
<path fill="none" stroke="#cfffac" d="M1063.21,-296.5C1063.21,-296.5 916.54,-296.5 916.54,-296.5 912.46,-296.5 908.38,-292.42 908.38,-288.33 908.38,-288.33 908.38,-280.17 908.38,-280.17 908.38,-276.08 912.46,-272 916.54,-272 916.54,-272 1063.21,-272 1063.21,-272 1067.29,-272 1071.38,-276.08 1071.38,-280.17 1071.38,-280.17 1071.38,-288.33 1071.38,-288.33 1071.38,-292.42 1067.29,-296.5 1063.21,-296.5"/>
<text text-anchor="middle" x="989.88" y="-279.2" font-family="Arial" font-size="14.00" fill="#cfffac">Game/ui/Background.js</text>
</g>
<!-- Game/world/World.js&#45;&gt;Game/ui/Background.js -->
<g id="edge18" class="edge">
<title>Game/world/World.js&#45;&gt;Game/ui/Background.js</title>
<path fill="none" stroke="#757575" d="M818.47,-233.95C830.13,-238.07 843.02,-242.73 854.75,-247.25 870.92,-253.48 874.23,-257 890.75,-262.25 898.27,-264.64 906.19,-266.87 914.14,-268.93"/>
<polygon fill="#757575" stroke="#757575" points="913.03,-272.5 923.58,-271.52 914.72,-265.71 913.03,-272.5"/>
</g>
<!-- Game/utils/Effects.js -->
<g id="node15" class="node">
<title>Game/utils/Effects.js</title>
<path fill="none" stroke="#cfffac" d="M1055.33,-339.5C1055.33,-339.5 924.42,-339.5 924.42,-339.5 920.33,-339.5 916.25,-335.42 916.25,-331.33 916.25,-331.33 916.25,-323.17 916.25,-323.17 916.25,-319.08 920.33,-315 924.42,-315 924.42,-315 1055.33,-315 1055.33,-315 1059.42,-315 1063.5,-319.08 1063.5,-323.17 1063.5,-323.17 1063.5,-331.33 1063.5,-331.33 1063.5,-335.42 1059.42,-339.5 1055.33,-339.5"/>
<text text-anchor="middle" x="989.88" y="-322.2" font-family="Arial" font-size="14.00" fill="#cfffac">Game/utils/Effects.js</text>
</g>
<!-- Game/world/World.js&#45;&gt;Game/utils/Effects.js -->
<g id="edge20" class="edge">
<title>Game/world/World.js&#45;&gt;Game/utils/Effects.js</title>
<path fill="none" stroke="#757575" d="M793.93,-233.92C813.08,-252.5 851.5,-286.88 890.75,-305.25 895.57,-307.5 900.63,-309.53 905.81,-311.36"/>
<polygon fill="#757575" stroke="#757575" points="904.28,-314.87 914.88,-314.63 906.44,-308.21 904.28,-314.87"/>
</g>
<!-- Game/utils/Intersections.js -->
<g id="node16" class="node">
<title>Game/utils/Intersections.js</title>
<path fill="none" stroke="#cfffac" d="M1073.33,-253.5C1073.33,-253.5 906.42,-253.5 906.42,-253.5 902.33,-253.5 898.25,-249.42 898.25,-245.33 898.25,-245.33 898.25,-237.17 898.25,-237.17 898.25,-233.08 902.33,-229 906.42,-229 906.42,-229 1073.33,-229 1073.33,-229 1077.42,-229 1081.5,-233.08 1081.5,-237.17 1081.5,-237.17 1081.5,-245.33 1081.5,-245.33 1081.5,-249.42 1077.42,-253.5 1073.33,-253.5"/>
<text text-anchor="middle" x="989.88" y="-236.2" font-family="Arial" font-size="14.00" fill="#cfffac">Game/utils/Intersections.js</text>
</g>
<!-- Game/world/World.js&#45;&gt;Game/utils/Intersections.js -->
<g id="edge21" class="edge">
<title>Game/world/World.js&#45;&gt;Game/utils/Intersections.js</title>
<path fill="none" stroke="#757575" d="M855.12,-228.36C865.51,-229.36 876.35,-230.4 887.16,-231.45"/>
<polygon fill="#757575" stroke="#757575" points="886.65,-235.01 896.94,-232.48 887.32,-228.04 886.65,-235.01"/>
</g>
<!-- Game/utils/PhysicsUtils.js -->
<g id="node17" class="node">
<title>Game/utils/PhysicsUtils.js</title>
<path fill="none" stroke="#cfffac" d="M1070.71,-210.5C1070.71,-210.5 909.04,-210.5 909.04,-210.5 904.96,-210.5 900.88,-206.42 900.88,-202.33 900.88,-202.33 900.88,-194.17 900.88,-194.17 900.88,-190.08 904.96,-186 909.04,-186 909.04,-186 1070.71,-186 1070.71,-186 1074.79,-186 1078.88,-190.08 1078.88,-194.17 1078.88,-194.17 1078.88,-202.33 1078.88,-202.33 1078.88,-206.42 1074.79,-210.5 1070.71,-210.5"/>
<text text-anchor="middle" x="989.88" y="-193.2" font-family="Arial" font-size="14.00" fill="#cfffac">Game/utils/PhysicsUtils.js</text>
</g>
<!-- Game/world/World.js&#45;&gt;Game/utils/PhysicsUtils.js -->
<g id="edge22" class="edge">
<title>Game/world/World.js&#45;&gt;Game/utils/PhysicsUtils.js</title>
<path fill="none" stroke="#757575" d="M855.12,-213.08C866.35,-211.83 878.1,-210.53 889.78,-209.23"/>
<polygon fill="#757575" stroke="#757575" points="889.9,-212.63 899.46,-208.05 889.13,-205.67 889.9,-212.63"/>
</g>
<!-- Game/world/WorldPhysics.js -->
<g id="node18" class="node">
<title>Game/world/WorldPhysics.js</title>
<path fill="none" stroke="#cfffac" d="M1080.83,-167.5C1080.83,-167.5 898.92,-167.5 898.92,-167.5 894.83,-167.5 890.75,-163.42 890.75,-159.33 890.75,-159.33 890.75,-151.17 890.75,-151.17 890.75,-147.08 894.83,-143 898.92,-143 898.92,-143 1080.83,-143 1080.83,-143 1084.92,-143 1089,-147.08 1089,-151.17 1089,-151.17 1089,-159.33 1089,-159.33 1089,-163.42 1084.92,-167.5 1080.83,-167.5"/>
<text text-anchor="middle" x="989.88" y="-150.2" font-family="Arial" font-size="14.00" fill="#cfffac">Game/world/WorldPhysics.js</text>
</g>
<!-- Game/world/World.js&#45;&gt;Game/world/WorldPhysics.js -->
<g id="edge23" class="edge">
<title>Game/world/World.js&#45;&gt;Game/world/WorldPhysics.js</title>
<path fill="none" stroke="#757575" d="M809.25,-208.58C831.09,-199.01 862.41,-186.06 890.75,-177.25 898.4,-174.87 906.46,-172.64 914.54,-170.57"/>
<polygon fill="#757575" stroke="#757575" points="915.26,-173.75 924.14,-167.96 913.59,-166.96 915.26,-173.75"/>
</g>
<!-- Game/world/WorldOpponent.js&#45;&gt;Game/config/types.js -->
<g id="edge25" class="edge">
<title>Game/world/WorldOpponent.js&#45;&gt;Game/config/types.js</title>
<path fill="none" stroke="#757575" d="M648.97,-261.96C656.3,-264.51 663.42,-267.57 670,-271.25 690.31,-282.6 687,-295.83 706,-309.25 779.37,-361.09 805.45,-363.06 890.75,-391.25 897.99,-393.64 905.61,-395.86 913.27,-397.89"/>
<polygon fill="#757575" stroke="#757575" points="912.17,-401.47 922.72,-400.54 913.89,-394.69 912.17,-401.47"/>
</g>
<!-- Game/world/WorldOpponent.js&#45;&gt;Game/world/World.js -->
<g id="edge28" class="edge">
<title>Game/world/WorldOpponent.js&#45;&gt;Game/world/World.js</title>
<path fill="none" stroke="#757575" d="M662.53,-236.52C673.28,-235.12 684.16,-233.69 694.73,-232.31"/>
<polygon fill="#757575" stroke="#757575" points="695.16,-235.66 704.62,-230.89 694.25,-228.71 695.16,-235.66"/>
</g>
<!-- Game/world/WorldOpponent.js&#45;&gt;Game/client/SocketClient.js -->
<g id="edge24" class="edge">
<title>Game/world/WorldOpponent.js&#45;&gt;Game/client/SocketClient.js</title>
<path fill="none" stroke="#757575" d="M597.07,-236.54C654.93,-213.83 781.27,-165.73 890.75,-134.25 898.98,-131.88 907.66,-129.62 916.31,-127.5"/>
<polygon fill="#757575" stroke="#757575" points="916.91,-130.71 925.82,-124.99 915.29,-123.9 916.91,-130.71"/>
</g>
<!-- Game/world/WorldOpponent.js&#45;&gt;Game/ui/Background.js -->
<g id="edge26" class="edge">
<title>Game/world/WorldOpponent.js&#45;&gt;Game/ui/Background.js</title>
<path fill="none" stroke="#757575" d="M670.42,-257.95C740.07,-263.7 830.51,-271.17 897.21,-276.68"/>
<polygon fill="#757575" stroke="#757575" points="896.86,-280.24 907.11,-277.58 897.44,-273.27 896.86,-280.24"/>
</g>
<!-- Game/world/WorldOpponent.js&#45;&gt;Game/utils/Effects.js -->
<g id="edge27" class="edge">
<title>Game/world/WorldOpponent.js&#45;&gt;Game/utils/Effects.js</title>
<path fill="none" stroke="#757575" d="M629.05,-261.98C642.61,-264.87 656.8,-268.04 670,-271.25 686.13,-275.18 689.78,-277.69 706,-281.25 772.43,-295.83 848.57,-307.96 905.11,-316.09"/>
<polygon fill="#757575" stroke="#757575" points="904.39,-319.67 914.79,-317.61 905.38,-312.74 904.39,-319.67"/>
</g>
<!-- Game/GameController.js -->
<g id="node10" class="node">
<title>Game/GameController.js</title>
<path fill="none" stroke="#c6c5fe" d="M266.08,-157.5C266.08,-157.5 108.92,-157.5 108.92,-157.5 104.83,-157.5 100.75,-153.42 100.75,-149.33 100.75,-149.33 100.75,-141.17 100.75,-141.17 100.75,-137.08 104.83,-133 108.92,-133 108.92,-133 266.08,-133 266.08,-133 270.17,-133 274.25,-137.08 274.25,-141.17 274.25,-141.17 274.25,-149.33 274.25,-149.33 274.25,-153.42 270.17,-157.5 266.08,-157.5"/>
<text text-anchor="middle" x="187.5" y="-140.2" font-family="Arial" font-size="14.00" fill="#c6c5fe">Game/GameController.js</text>
</g>
<!-- Game/GameController.js&#45;&gt;Game/Game.js -->
<g id="edge9" class="edge">
<title>Game/GameController.js&#45;&gt;Game/Game.js</title>
<path fill="none" stroke="#757575" d="M203.57,-157.78C234.41,-183.43 304.9,-242.06 341.78,-272.73"/>
<polygon fill="#757575" stroke="#757575" points="339.04,-275.84 348.97,-279.54 343.52,-270.45 339.04,-275.84"/>
</g>
<!-- Game/GameController.js&#45;&gt;Game/config/types.js -->
<g id="edge11" class="edge">
<title>Game/GameController.js&#45;&gt;Game/config/types.js</title>
<path fill="none" stroke="#757575" d="M194.08,-157.72C217.4,-208.02 312.62,-396.41 458.25,-461.25 619.32,-532.97 682.43,-511.59 854.75,-474.25 892.66,-466.03 932.71,-446.15 959.07,-431.3"/>
<polygon fill="#757575" stroke="#757575" points="960.55,-433.92 967.47,-425.89 957.06,-427.85 960.55,-433.92"/>
</g>
<!-- Game/GameController.js&#45;&gt;Game/client/SocketClient.js -->
<g id="edge10" class="edge">
<title>Game/GameController.js&#45;&gt;Game/client/SocketClient.js</title>
<path fill="none" stroke="#757575" d="M274.53,-141.7C422.24,-135.61 723.58,-123.19 883.59,-116.59"/>
<polygon fill="#757575" stroke="#757575" points="883.54,-120.05 893.39,-116.15 883.25,-113.06 883.54,-120.05"/>
</g>
<!-- style.css -->
<g id="node12" class="node">
<title>style.css</title>
<path fill="none" stroke="#cfffac" d="M393.83,-24.5C393.83,-24.5 338.67,-24.5 338.67,-24.5 334.58,-24.5 330.5,-20.42 330.5,-16.33 330.5,-16.33 330.5,-8.17 330.5,-8.17 330.5,-4.08 334.58,0 338.67,0 338.67,0 393.83,0 393.83,0 397.92,0 402,-4.08 402,-8.17 402,-8.17 402,-16.33 402,-16.33 402,-20.42 397.92,-24.5 393.83,-24.5"/>
<text text-anchor="middle" x="366.25" y="-7.2" font-family="Arial" font-size="14.00" fill="#cfffac">style.css</text>
</g>
<!-- Game/GameController.js&#45;&gt;style.css -->
<g id="edge12" class="edge">
<title>Game/GameController.js&#45;&gt;style.css</title>
<path fill="none" stroke="#757575" d="M200.35,-132.76C221.1,-111.39 266.04,-67.3 310.25,-38.25 314.82,-35.25 319.8,-32.39 324.82,-29.75"/>
<polygon fill="#757575" stroke="#757575" points="326.07,-32.55 333.46,-24.96 322.95,-26.28 326.07,-32.55"/>
</g>
<!-- script.js -->
<g id="node19" class="node">
<title>script.js</title>
<path fill="none" stroke="#c6c5fe" d="M56.58,-157.5C56.58,-157.5 8.17,-157.5 8.17,-157.5 4.08,-157.5 0,-153.42 0,-149.33 0,-149.33 0,-141.17 0,-141.17 0,-137.08 4.08,-133 8.17,-133 8.17,-133 56.58,-133 56.58,-133 60.67,-133 64.75,-137.08 64.75,-141.17 64.75,-141.17 64.75,-149.33 64.75,-149.33 64.75,-153.42 60.67,-157.5 56.58,-157.5"/>
<text text-anchor="middle" x="32.38" y="-140.2" font-family="Arial" font-size="14.00" fill="#c6c5fe">script.js</text>
</g>
<!-- script.js&#45;&gt;Game/GameController.js -->
<g id="edge29" class="edge">
<title>script.js&#45;&gt;Game/GameController.js</title>
<path fill="none" stroke="#757575" d="M65.1,-145.25C72.58,-145.25 80.93,-145.25 89.66,-145.25"/>
<polygon fill="#757575" stroke="#757575" points="89.47,-148.75 99.47,-145.25 89.47,-141.75 89.47,-148.75"/>
</g>
</g>
</svg>
